<svg width="1920" height="610" viewBox="0 0 1920 610" fill="none" xmlns="http://www.w3.org/2000/svg">
<g clip-path="url(#clip0_90_783)">
<g filter="url(#filter0_f_90_783)">
<rect width="105.078" height="105.078" transform="matrix(0.866025 0.5 -2.20305e-08 1 1668 576.539)" fill="url(#paint0_linear_90_783)"/>
<rect width="105.078" height="105.078" transform="matrix(0.866025 -0.5 0.866025 0.5 1668 576.539)" fill="url(#paint1_linear_90_783)"/>
<rect width="105.078" height="105.078" transform="matrix(0.866025 -0.5 2.20305e-08 1 1759 629.078)" fill="url(#paint2_linear_90_783)"/>
</g>
<g filter="url(#filter1_f_90_783)">
<rect width="105.078" height="105.078" transform="matrix(0.866025 0.5 -2.20305e-08 1 -52 326.539)" fill="url(#paint3_linear_90_783)"/>
<rect width="105.078" height="105.078" transform="matrix(0.866025 -0.5 0.866025 0.5 -52 326.539)" fill="url(#paint4_linear_90_783)"/>
<rect width="105.078" height="105.078" transform="matrix(0.866025 -0.5 2.20305e-08 1 39 379.078)" fill="url(#paint5_linear_90_783)"/>
</g>
<rect width="42" height="42" transform="matrix(0.866025 0.5 -2.20305e-08 1 1481 453)" fill="url(#paint6_linear_90_783)"/>
<rect width="42" height="42" transform="matrix(0.866025 -0.5 0.866025 0.5 1481 453)" fill="url(#paint7_linear_90_783)"/>
<rect width="42" height="42" transform="matrix(0.866025 -0.5 2.20305e-08 1 1517.37 474)" fill="url(#paint8_linear_90_783)"/>
<rect width="42" height="42" transform="matrix(0.866025 0.5 -2.20305e-08 1 275 21)" fill="url(#paint9_linear_90_783)"/>
<rect width="42" height="42" transform="matrix(0.866025 -0.5 0.866025 0.5 275 21)" fill="url(#paint10_linear_90_783)"/>
<rect width="42" height="42" transform="matrix(0.866025 -0.5 2.20305e-08 1 311.373 42)" fill="url(#paint11_linear_90_783)"/>
<rect width="13" height="13" transform="matrix(0.866025 0.5 -2.20305e-08 1 460 280.5)" fill="url(#paint12_linear_90_783)"/>
<rect width="13" height="13" transform="matrix(0.866025 -0.5 0.866025 0.5 460 280.5)" fill="url(#paint13_linear_90_783)"/>
<rect width="13" height="13" transform="matrix(0.866025 -0.5 2.20305e-08 1 471.258 287)" fill="url(#paint14_linear_90_783)"/>
<rect width="42" height="42" transform="matrix(0.866025 0.5 -2.20305e-08 1 363 508)" fill="url(#paint15_linear_90_783)"/>
<rect width="42" height="42" transform="matrix(0.866025 -0.5 0.866025 0.5 363 508)" fill="url(#paint16_linear_90_783)"/>
<rect width="42" height="42" transform="matrix(0.866025 -0.5 2.20305e-08 1 399.373 529)" fill="url(#paint17_linear_90_783)"/>
<path d="M582.185 1799.94L582.404 1798.96C834.029 1842.54 1122.93 1750.67 1343.81 1529.8C1564.68 1308.93 1656.55 1020.02 1612.97 768.398L1613.94 768.179C1689.26 1038.94 1614.27 1349.01 1388.64 1574.64C1163.01 1800.27 852.943 1875.26 582.185 1799.94ZM537.019 1767.88L537.21 1766.9C775.125 1799.6 1059.87 1696.07 1284.97 1470.97C1510.07 1245.86 1613.61 961.12 1580.91 723.204L1581.89 723.013C1646.78 978.611 1561.05 1284.55 1329.81 1515.8C1098.56 1747.05 792.616 1832.78 537.019 1767.88ZM492.52 1737.45L492.679 1736.46C554.307 1742.45 620.27 1737.95 688.211 1723.5C866.387 1685.6 1059.11 1579.15 1226.13 1412.13C1393.15 1245.11 1499.6 1052.38 1537.5 874.206C1551.95 806.265 1556.45 740.302 1550.47 678.673L1551.45 678.514C1605.83 917.609 1508.62 1219.31 1270.97 1456.96C1033.32 1694.61 731.614 1791.82 492.52 1737.45ZM449.683 1709.21L449.804 1708.22C510.783 1711.17 577.641 1701.99 647.377 1681.7C814.662 1633.04 1000.52 1520.07 1167.3 1353.29C1334.08 1186.51 1447.04 1000.66 1495.71 833.371C1515.99 763.635 1525.17 696.778 1522.23 635.798L1523.22 635.678C1537.36 707.558 1535.22 787.547 1517.38 871.374C1480.49 1044.83 1376.49 1233.77 1212.13 1398.13C1047.77 1562.48 858.832 1666.48 685.379 1703.38C601.553 1721.21 521.563 1723.35 449.683 1709.21ZM409.807 1683.37L409.877 1682.38C469.015 1681.5 535.865 1666.69 606.603 1639.82C762.926 1580.44 941.906 1461.01 1108.46 1294.46C1275.01 1127.9 1394.44 948.921 1453.82 792.598C1480.69 721.86 1495.5 655.009 1496.39 595.871L1497.38 595.801C1508.18 664.404 1500.77 743.754 1475.97 829C1428.54 992.05 1317.89 1174.69 1153.3 1339.29C988.699 1503.89 806.055 1614.54 643.006 1661.97C557.759 1686.77 478.41 1694.18 409.807 1683.37ZM372.559 1660.12L372.564 1659.13C428.183 1653.71 494.01 1632.47 565.879 1597.84C711.18 1527.81 883.282 1401.96 1049.62 1235.62C1215.97 1069.28 1341.81 897.174 1411.84 751.873C1446.48 680.005 1467.71 614.177 1473.13 558.559L1474.13 558.554C1480.96 622.302 1467.5 700.072 1434.65 786.566C1376.64 939.283 1259.28 1115.63 1094.46 1280.45C929.636 1445.28 753.288 1562.63 600.571 1620.64C514.078 1653.5 436.308 1666.96 372.559 1660.12ZM338.212 1639.77L338.128 1638.78C341.894 1637.98 345.715 1637.09 349.584 1636.1C398.275 1623.7 458.131 1596 525.182 1555.74C659.421 1475.15 824.644 1342.93 990.787 1176.78C1156.93 1010.64 1289.15 845.416 1369.75 711.177C1410.01 644.126 1437.71 584.27 1450.11 535.579C1451.09 531.709 1451.99 527.889 1452.79 524.122L1453.77 524.207C1454.17 534.365 1453.84 545.124 1452.8 556.466C1447.98 609.002 1427.77 672.825 1393.42 744.083C1324.77 886.527 1200.66 1056.58 1035.62 1221.62C870.587 1386.65 700.533 1510.77 558.089 1579.42C486.83 1613.76 423.008 1633.97 370.471 1638.8C359.129 1639.84 348.37 1640.16 338.212 1639.77ZM289.677 1622.53L289.551 1621.56C345.363 1601.65 436.763 1541.28 547.925 1452.16C659.067 1363.06 789.911 1245.28 924.596 1110.59C1059.28 975.906 1177.07 845.061 1266.17 733.92C1355.28 622.758 1415.66 531.357 1435.57 475.546L1436.54 475.671C1437.85 490.928 1435.86 509.631 1430.19 531.914C1418.54 577.663 1392.04 635.398 1352.31 701.572C1272.93 833.783 1142.02 997.546 976.785 1162.78C811.552 1328.01 647.789 1458.92 515.577 1538.3C449.403 1578.04 391.668 1604.53 345.919 1616.18C323.637 1621.85 304.934 1623.84 289.677 1622.53ZM1421.12 438.049L1421.26 438.123L1421.33 438.265C1421.75 439.072 1422.9 442.22 1421.5 450.736C1419.75 461.44 1414.55 476.529 1405.05 496.143C1386.18 535.139 1352.76 587.223 1306.78 649.055C1215.04 772.44 1075.73 931.45 910.594 1096.59C745.455 1261.73 586.445 1401.03 463.06 1492.78C401.228 1538.75 349.145 1572.18 310.148 1591.05C290.534 1600.54 275.445 1605.75 264.741 1607.5C256.225 1608.89 253.077 1607.74 252.27 1607.33L252.128 1607.26L252.055 1607.11C251.639 1606.31 250.492 1603.16 251.885 1594.64C253.636 1583.94 258.843 1568.85 268.335 1549.24C287.207 1510.24 320.633 1458.16 366.608 1396.32C458.35 1272.94 597.656 1113.93 762.795 948.79C927.934 783.651 1086.94 644.344 1210.33 552.602C1272.16 506.628 1324.24 473.202 1363.24 454.33C1382.86 444.838 1397.94 439.631 1408.65 437.88C1417.16 436.487 1420.31 437.634 1421.12 438.049ZM237.037 1622.35C549.457 1934.77 1066.95 1924.33 1402.64 1588.64C1738.34 1252.94 1748.77 735.452 1436.35 423.032C1430.43 417.113 1420.5 415.336 1406.81 417.575C1393.14 419.812 1375.86 426.034 1355.42 435.928C1314.54 455.711 1261.13 490.115 1198.86 536.413C1074.33 629.004 914.47 769.111 748.793 934.788C583.117 1100.46 443.01 1260.33 350.419 1384.85C304.121 1447.12 269.716 1500.53 249.933 1541.41C240.04 1561.86 233.817 1579.14 231.581 1592.8C229.342 1606.49 231.119 1616.43 237.037 1622.35Z" stroke="#195CE8"/>
<path d="M-29.9349 1187.82L-28.9605 1187.6C-72.5394 935.98 19.3285 647.074 240.201 426.201C461.074 205.329 749.98 113.461 1001.6 157.04L1001.82 156.065C731.066 80.7441 420.998 155.735 195.367 381.367C-30.2644 606.998 -105.256 917.066 -29.9349 1187.82ZM2.12072 1232.99L3.10069 1232.8C-29.5993 994.883 73.934 710.142 299.038 485.038C524.141 259.934 808.883 156.401 1046.8 189.101L1046.99 188.121C791.392 123.227 485.451 208.955 254.203 440.203C22.9551 671.451 -62.7732 977.392 2.12072 1232.99ZM32.5556 1277.49L33.5408 1277.33C27.5559 1215.7 32.0534 1149.74 46.5059 1081.8C84.4075 903.621 190.855 710.894 357.874 543.874C524.894 376.855 717.621 270.408 895.797 232.506C963.738 218.053 1029.7 213.556 1091.33 219.541L1091.49 218.556C852.394 164.179 550.69 261.389 313.04 499.04C75.3894 736.69 -21.8211 1038.39 32.5556 1277.49ZM60.7899 1320.33L61.7799 1320.2C58.8365 1259.22 68.0172 1192.37 88.3032 1122.63C136.966 955.346 249.931 769.492 416.711 602.711C583.491 435.931 769.346 322.966 936.632 274.303C1006.37 254.017 1073.23 244.837 1134.2 247.78L1134.33 246.79C1062.45 232.651 982.456 234.792 898.629 252.623C725.177 289.52 536.234 393.519 371.876 557.876C207.519 722.234 103.52 911.177 66.6233 1084.63C48.7918 1168.46 46.6513 1248.45 60.7899 1320.33ZM86.6281 1360.2L87.6219 1360.13C88.5072 1300.99 103.315 1234.14 130.185 1163.41C189.564 1007.08 308.993 828.102 475.548 661.548C642.102 494.993 821.082 375.564 977.405 316.185C1048.14 289.316 1114.99 274.507 1174.13 273.622L1174.2 272.628C1105.6 261.826 1026.25 269.236 941.003 294.034C777.953 341.464 595.31 452.117 430.713 616.713C266.117 781.31 155.464 963.953 108.034 1127C83.2357 1212.25 75.8264 1291.6 86.6281 1360.2ZM109.882 1397.45L110.876 1397.44C116.296 1341.83 137.529 1276 172.167 1204.13C242.197 1058.83 368.042 886.726 534.384 720.384C700.726 554.042 872.829 428.197 1018.13 358.167C1090 323.529 1155.83 302.296 1211.44 296.876L1211.45 295.882C1147.7 289.044 1069.93 302.505 983.437 335.359C830.72 393.368 654.372 510.727 489.55 675.55C324.727 840.372 207.368 1016.72 149.359 1169.44C116.505 1255.93 103.044 1333.7 109.882 1397.45ZM130.234 1431.8L131.223 1431.88C132.021 1428.11 132.914 1424.29 133.9 1420.42C146.298 1371.73 174.003 1311.88 214.261 1244.83C294.858 1110.59 427.078 945.364 593.221 779.221C759.364 613.078 924.587 480.858 1058.83 400.261C1125.88 360.003 1185.73 332.298 1234.42 319.9C1238.29 318.914 1242.11 318.021 1245.88 317.223L1245.8 316.234C1235.64 315.841 1224.88 316.163 1213.54 317.205C1161 322.032 1097.18 342.241 1025.92 376.585C883.476 445.238 713.421 569.351 548.386 734.386C383.351 899.421 259.238 1069.48 190.585 1211.92C156.241 1283.18 136.032 1347 131.205 1399.54C130.163 1410.88 129.841 1421.64 130.234 1431.8ZM147.47 1480.33L148.439 1480.46C168.351 1424.65 228.724 1333.24 317.839 1222.08C406.939 1110.94 524.727 980.097 659.412 845.412C794.097 710.727 924.941 592.939 1036.08 503.839C1147.24 414.724 1238.65 354.351 1294.46 334.439L1294.33 333.469C1279.07 332.163 1260.37 334.148 1238.09 339.822C1192.34 351.472 1134.61 377.968 1068.43 417.699C936.219 497.079 772.457 627.989 607.223 793.223C441.989 958.457 311.079 1122.22 231.699 1254.43C191.968 1320.61 165.472 1378.34 153.822 1424.09C148.148 1446.37 146.163 1465.07 147.47 1480.33ZM1331.95 348.889L1331.88 348.747L1331.74 348.674C1330.93 348.258 1327.78 347.111 1319.27 348.504C1308.56 350.255 1293.47 355.462 1273.86 364.954C1234.86 383.826 1182.78 417.252 1120.95 463.227C997.563 554.969 838.553 694.275 673.414 859.414C508.275 1024.55 368.969 1183.56 277.227 1306.95C231.252 1368.78 197.826 1420.86 178.954 1459.86C169.462 1479.47 164.255 1494.56 162.504 1505.27C161.111 1513.78 162.258 1516.93 162.674 1517.74L162.747 1517.88L162.889 1517.95C163.696 1518.37 166.844 1519.52 175.36 1518.12C186.064 1516.37 201.153 1511.17 220.767 1501.67C259.763 1482.8 311.847 1449.38 373.679 1403.4C497.064 1311.66 656.074 1172.35 821.213 1007.21C986.352 842.074 1125.66 683.064 1217.4 559.679C1263.38 497.847 1296.8 445.763 1315.67 406.767C1325.17 387.153 1330.37 372.064 1332.12 361.36C1333.52 352.844 1332.37 349.696 1331.95 348.889ZM147.656 1532.97C-164.764 1220.55 -154.331 703.06 181.365 367.365C517.06 31.669 1034.55 21.2361 1346.97 333.656C1352.89 339.575 1354.67 349.511 1352.43 363.198C1350.19 376.867 1343.97 394.147 1334.08 414.589C1314.29 455.468 1279.89 508.883 1233.59 571.149C1141 695.676 1000.89 855.538 835.215 1021.21C669.538 1186.89 509.676 1327 385.149 1419.59C322.883 1465.89 269.468 1500.29 228.589 1520.08C208.147 1529.97 190.867 1536.19 177.198 1538.43C163.511 1540.67 153.575 1538.89 147.656 1532.97Z" stroke="#195CE8"/>
</g>
<defs>
<filter id="filter0_f_90_783" x="1633.66" y="489.66" width="250.679" height="278.835" filterUnits="userSpaceOnUse" color-interpolation-filters="sRGB">
<feFlood flood-opacity="0" result="BackgroundImageFix"/>
<feBlend mode="normal" in="SourceGraphic" in2="BackgroundImageFix" result="shape"/>
<feGaussianBlur stdDeviation="17.1698" result="effect1_foregroundBlur_90_783"/>
</filter>
<filter id="filter1_f_90_783" x="-86.3396" y="239.66" width="250.679" height="278.835" filterUnits="userSpaceOnUse" color-interpolation-filters="sRGB">
<feFlood flood-opacity="0" result="BackgroundImageFix"/>
<feBlend mode="normal" in="SourceGraphic" in2="BackgroundImageFix" result="shape"/>
<feGaussianBlur stdDeviation="17.1698" result="effect1_foregroundBlur_90_783"/>
</filter>
<linearGradient id="paint0_linear_90_783" x1="103.057" y1="-2.2823e-06" x2="-7.09427" y2="95.3232" gradientUnits="userSpaceOnUse">
<stop stop-color="#1C92FF"/>
<stop offset="1" stop-color="#0a0708"/>
</linearGradient>
<linearGradient id="paint1_linear_90_783" x1="103.057" y1="-2.2823e-06" x2="-7.09427" y2="95.3232" gradientUnits="userSpaceOnUse">
<stop stop-color="#175DEF"/>
<stop offset="1" stop-color="#45A6FF"/>
</linearGradient>
<linearGradient id="paint2_linear_90_783" x1="103.057" y1="-2.2823e-06" x2="-7.09427" y2="95.3232" gradientUnits="userSpaceOnUse">
<stop stop-color="#1C92FF"/>
<stop offset="1" stop-color="#1258ED"/>
</linearGradient>
<linearGradient id="paint3_linear_90_783" x1="103.057" y1="-2.2823e-06" x2="-7.09427" y2="95.3232" gradientUnits="userSpaceOnUse">
<stop stop-color="#1C92FF"/>
<stop offset="1" stop-color="#0a0708"/>
</linearGradient>
<linearGradient id="paint4_linear_90_783" x1="103.057" y1="-2.2823e-06" x2="-7.09427" y2="95.3232" gradientUnits="userSpaceOnUse">
<stop stop-color="#175DEF"/>
<stop offset="1" stop-color="#45A6FF"/>
</linearGradient>
<linearGradient id="paint5_linear_90_783" x1="103.057" y1="-2.2823e-06" x2="-7.09427" y2="95.3232" gradientUnits="userSpaceOnUse">
<stop stop-color="#1C92FF"/>
<stop offset="1" stop-color="#1258ED"/>
</linearGradient>
<linearGradient id="paint6_linear_90_783" x1="41.1923" y1="-9.12245e-07" x2="-2.83561" y2="38.1011" gradientUnits="userSpaceOnUse">
<stop stop-color="#1C92FF"/>
<stop offset="1" stop-color="#0a0708"/>
</linearGradient>
<linearGradient id="paint7_linear_90_783" x1="41.1923" y1="-9.12245e-07" x2="-2.83561" y2="38.1011" gradientUnits="userSpaceOnUse">
<stop stop-color="#175DEF"/>
<stop offset="1" stop-color="#45A6FF"/>
</linearGradient>
<linearGradient id="paint8_linear_90_783" x1="41.1923" y1="-9.12245e-07" x2="-2.83561" y2="38.1011" gradientUnits="userSpaceOnUse">
<stop stop-color="#1C92FF"/>
<stop offset="1" stop-color="#1258ED"/>
</linearGradient>
<linearGradient id="paint9_linear_90_783" x1="41.1923" y1="-9.12245e-07" x2="-2.83561" y2="38.1011" gradientUnits="userSpaceOnUse">
<stop stop-color="#1C92FF"/>
<stop offset="1" stop-color="#0a0708"/>
</linearGradient>
<linearGradient id="paint10_linear_90_783" x1="41.1923" y1="-9.12245e-07" x2="-2.83561" y2="38.1011" gradientUnits="userSpaceOnUse">
<stop stop-color="#175DEF"/>
<stop offset="1" stop-color="#45A6FF"/>
</linearGradient>
<linearGradient id="paint11_linear_90_783" x1="41.1923" y1="-9.12245e-07" x2="-2.83561" y2="38.1011" gradientUnits="userSpaceOnUse">
<stop stop-color="#1C92FF"/>
<stop offset="1" stop-color="#1258ED"/>
</linearGradient>
<linearGradient id="paint12_linear_90_783" x1="12.75" y1="-2.82362e-07" x2="-0.877688" y2="11.7932" gradientUnits="userSpaceOnUse">
<stop stop-color="#1C92FF"/>
<stop offset="1" stop-color="#0a0708"/>
</linearGradient>
<linearGradient id="paint13_linear_90_783" x1="12.75" y1="-2.82362e-07" x2="-0.877688" y2="11.7932" gradientUnits="userSpaceOnUse">
<stop stop-color="#175DEF"/>
<stop offset="1" stop-color="#45A6FF"/>
</linearGradient>
<linearGradient id="paint14_linear_90_783" x1="12.75" y1="-2.82362e-07" x2="-0.877688" y2="11.7932" gradientUnits="userSpaceOnUse">
<stop stop-color="#1C92FF"/>
<stop offset="1" stop-color="#1258ED"/>
</linearGradient>
<linearGradient id="paint15_linear_90_783" x1="41.1923" y1="-9.12245e-07" x2="-2.83561" y2="38.1011" gradientUnits="userSpaceOnUse">
<stop stop-color="#1C92FF"/>
<stop offset="1" stop-color="#0a0708"/>
</linearGradient>
<linearGradient id="paint16_linear_90_783" x1="41.1923" y1="-9.12245e-07" x2="-2.83561" y2="38.1011" gradientUnits="userSpaceOnUse">
<stop stop-color="#175DEF"/>
<stop offset="1" stop-color="#45A6FF"/>
</linearGradient>
<linearGradient id="paint17_linear_90_783" x1="41.1923" y1="-9.12245e-07" x2="-2.83561" y2="38.1011" gradientUnits="userSpaceOnUse">
<stop stop-color="#1C92FF"/>
<stop offset="1" stop-color="#1258ED"/>
</linearGradient>
<clipPath id="clip0_90_783">
<rect width="1920" height="610" fill="white"/>
</clipPath>
</defs>
</svg>
